<svg width="30" height="30" viewBox="0 0 30 30" fill="none" xmlns="http://www.w3.org/2000/svg">
<rect width="30" height="30" rx="15" fill="white"/>
<path d="M17.7538 11.0713C17.6202 11.0713 17.4897 11.1108 17.3787 11.185C17.2677 11.2592 17.1812 11.3646 17.1301 11.4879C17.079 11.6113 17.0657 11.747 17.0917 11.8779C17.1178 12.0089 17.1821 12.1291 17.2765 12.2235C17.3709 12.3179 17.4911 12.3822 17.6221 12.4083C17.753 12.4343 17.8887 12.421 18.0121 12.3699C18.1354 12.3188 18.2408 12.2323 18.315 12.1213C18.3892 12.0103 18.4288 11.8798 18.4288 11.7462C18.4288 11.5672 18.3576 11.3955 18.231 11.269C18.1045 11.1424 17.9328 11.0713 17.7538 11.0713V11.0713ZM20.3413 12.4325C20.3303 11.9658 20.2429 11.504 20.0825 11.0656C19.9395 10.6905 19.7169 10.3508 19.43 10.07C19.1515 9.78168 18.811 9.56047 18.4344 9.42312C17.9971 9.25784 17.5349 9.16843 17.0675 9.15875C16.4713 9.125 16.28 9.125 14.75 9.125C13.22 9.125 13.0288 9.125 12.4325 9.15875C11.9651 9.16843 11.5029 9.25784 11.0656 9.42312C10.6897 9.56186 10.3495 9.78288 10.07 10.07C9.78168 10.3485 9.56047 10.689 9.42312 11.0656C9.25784 11.5029 9.16843 11.9651 9.15875 12.4325C9.125 13.0288 9.125 13.22 9.125 14.75C9.125 16.28 9.125 16.4713 9.15875 17.0675C9.16843 17.5349 9.25784 17.9971 9.42312 18.4344C9.56047 18.811 9.78168 19.1515 10.07 19.43C10.3495 19.7171 10.6897 19.9381 11.0656 20.0769C11.5029 20.2422 11.9651 20.3316 12.4325 20.3413C13.0288 20.375 13.22 20.375 14.75 20.375C16.28 20.375 16.4713 20.375 17.0675 20.3413C17.5349 20.3316 17.9971 20.2422 18.4344 20.0769C18.811 19.9395 19.1515 19.7183 19.43 19.43C19.7181 19.1502 19.9409 18.8102 20.0825 18.4344C20.2429 17.996 20.3303 17.5342 20.3413 17.0675C20.3413 16.4713 20.375 16.28 20.375 14.75C20.375 13.22 20.375 13.0288 20.3413 12.4325V12.4325ZM19.3287 17C19.3247 17.3571 19.26 17.7108 19.1375 18.0463C19.0477 18.291 18.9034 18.5122 18.7156 18.6931C18.5332 18.879 18.3124 19.023 18.0687 19.115C17.7333 19.2375 17.3796 19.3022 17.0225 19.3063C16.46 19.3344 16.2519 19.34 14.7725 19.34C13.2931 19.34 13.085 19.34 12.5225 19.3063C12.1518 19.3132 11.7826 19.2561 11.4312 19.1375C11.1983 19.0408 10.9876 18.8972 10.8125 18.7156C10.6258 18.5349 10.4833 18.3135 10.3963 18.0687C10.2589 17.7285 10.1827 17.3667 10.1712 17C10.1712 16.4375 10.1375 16.2294 10.1375 14.75C10.1375 13.2706 10.1375 13.0625 10.1712 12.5C10.1738 12.135 10.2404 11.7732 10.3681 11.4312C10.4672 11.1938 10.6191 10.9822 10.8125 10.8125C10.9834 10.6191 11.1946 10.4655 11.4312 10.3625C11.7741 10.2388 12.1355 10.1741 12.5 10.1712C13.0625 10.1712 13.2706 10.1375 14.75 10.1375C16.2294 10.1375 16.4375 10.1375 17 10.1712C17.3571 10.1753 17.7108 10.24 18.0463 10.3625C18.3019 10.4574 18.5313 10.6116 18.7156 10.8125C18.9 10.9853 19.044 11.1965 19.1375 11.4312C19.2625 11.7738 19.3272 12.1354 19.3287 12.5C19.3569 13.0625 19.3625 13.2706 19.3625 14.75C19.3625 16.2294 19.3569 16.4375 19.3287 17ZM14.75 11.8644C14.1795 11.8655 13.6222 12.0357 13.1484 12.3534C12.6746 12.6712 12.3056 13.1222 12.088 13.6496C11.8705 14.177 11.8142 14.757 11.9261 15.3164C12.0381 15.8758 12.3134 16.3894 12.7172 16.7924C13.121 17.1954 13.6351 17.4697 14.1947 17.5806C14.7543 17.6915 15.3342 17.634 15.8612 17.4154C16.3882 17.1969 16.8385 16.827 17.1553 16.3526C17.4722 15.8782 17.6412 15.3205 17.6412 14.75C17.642 14.3704 17.5677 13.9943 17.4226 13.6435C17.2775 13.2927 17.0644 12.9741 16.7957 12.7059C16.527 12.4377 16.208 12.2253 15.8569 12.0809C15.5058 11.9365 15.1296 11.8629 14.75 11.8644V11.8644ZM14.75 16.6231C14.3795 16.6231 14.0174 16.5133 13.7093 16.3074C13.4013 16.1016 13.1612 15.8091 13.0195 15.4668C12.8777 15.1245 12.8406 14.7479 12.9129 14.3846C12.9851 14.0212 13.1635 13.6875 13.4255 13.4255C13.6875 13.1635 14.0212 12.9851 14.3846 12.9129C14.7479 12.8406 15.1245 12.8777 15.4668 13.0195C15.8091 13.1612 16.1016 13.4013 16.3074 13.7093C16.5133 14.0174 16.6231 14.3795 16.6231 14.75C16.6231 14.996 16.5747 15.2396 16.4805 15.4668C16.3864 15.6941 16.2484 15.9006 16.0745 16.0745C15.9006 16.2484 15.6941 16.3864 15.4668 16.4805C15.2396 16.5747 14.996 16.6231 14.75 16.6231V16.6231Z" fill="#0B3142"/>
</svg>
