<svg width="30" height="30" viewBox="0 0 30 30" fill="none" xmlns="http://www.w3.org/2000/svg">
<rect width="30" height="30" rx="15" fill="white"/>
<path d="M10.8125 10.75C11.5029 10.75 12.0625 10.1904 12.0625 9.5C12.0625 8.80964 11.5029 8.25 10.8125 8.25C10.1221 8.25 9.5625 8.80964 9.5625 9.5C9.5625 10.1904 10.1221 10.75 10.8125 10.75Z" stroke="#0B3142"/>
<path d="M9.5625 12.625H12.0625V20.4375H9.5625V12.625ZM14.5625 15.5938V20.4375H16.75V16.0625C16.75 15.2812 17.2188 14.6562 18 14.6562C18.7812 14.6562 19.25 15.4375 19.25 16.0625V20.4375H21.4375V15.5938C21.4375 14.6562 20.3438 12.625 18 12.625C15.6562 12.625 14.5625 14.6562 14.5625 15.5938Z" stroke="#0B3142" stroke-linejoin="round"/>
</svg>
