<svg width="30" height="32" viewBox="0 0 30 32" fill="none" xmlns="http://www.w3.org/2000/svg">
<path d="M5.44409 17.4482V25.9997C5.44409 26.2649 5.53969 26.5193 5.70985 26.7068C5.88001 26.8944 6.1108 26.9997 6.35144 26.9997H22.6837C22.9244 26.9997 23.1551 26.8944 23.3253 26.7068C23.4955 26.5193 23.5911 26.2649 23.5911 25.9997V17.4484" stroke="#424A52" stroke-width="2" stroke-linecap="round" stroke-linejoin="round"/>
<path d="M6.1285 5H22.9066C23.1038 5 23.2956 5.07079 23.453 5.20165C23.6105 5.33251 23.7249 5.51633 23.7791 5.72528L25.4058 12H3.62939L5.25607 5.72528C5.31024 5.51633 5.42469 5.33251 5.5821 5.20165C5.73952 5.07079 5.93133 5 6.1285 5Z" stroke="#424A52" stroke-width="2" stroke-linecap="round" stroke-linejoin="round"/>
<path d="M10.8882 12V14C10.8882 15.0609 10.5058 16.0783 9.82516 16.8284C9.14451 17.5786 8.22136 18 7.25879 18C6.29621 18 5.37306 17.5786 4.69242 16.8284C4.01178 16.0783 3.62939 15.0609 3.62939 14V12" stroke="#424A52" stroke-width="2" stroke-linecap="round" stroke-linejoin="round"/>
<path d="M18.147 12V14C18.147 15.0609 17.7646 16.0783 17.0839 16.8284C16.4033 17.5786 15.4802 18 14.5176 18C13.555 18 12.6319 17.5786 11.9512 16.8284C11.2706 16.0783 10.8882 15.0609 10.8882 14V12" stroke="#424A52" stroke-width="2" stroke-linecap="round" stroke-linejoin="round"/>
<path d="M25.4058 12V14C25.4058 15.0609 25.0234 16.0783 24.3427 16.8284C23.6621 17.5786 22.7389 18 21.7764 18C20.8138 18 19.8906 17.5786 19.21 16.8284C18.5294 16.0783 18.147 15.0609 18.147 14V12" stroke="#424A52" stroke-width="2" stroke-linecap="round" stroke-linejoin="round"/>
</svg>
