<svg width="30" height="30" viewBox="0 0 30 30" fill="none" xmlns="http://www.w3.org/2000/svg">
<rect width="30" height="30" rx="15" fill="white"/>
<path d="M16.5625 11.4688C16.0875 11.4687 15.6314 11.6551 15.2924 11.9879C14.9535 12.3206 14.7587 12.7732 14.75 13.2481L14.7325 14.2325C14.7315 14.2854 14.7193 14.3374 14.6967 14.3852C14.6742 14.433 14.6418 14.4755 14.6016 14.5099C14.5615 14.5443 14.5146 14.5699 14.4639 14.5849C14.4132 14.5998 14.3599 14.6039 14.3075 14.5969L13.3319 14.4644C12.0481 14.2894 10.8181 13.6981 9.63812 12.715C9.26437 14.7838 9.99437 16.2169 11.7525 17.3225L12.8444 18.0088C12.8963 18.0414 12.9394 18.0862 12.9699 18.1393C13.0005 18.1924 13.0175 18.2522 13.0196 18.3134C13.0217 18.3747 13.0088 18.4355 12.9819 18.4906C12.9551 18.5456 12.9151 18.5933 12.8656 18.6294L11.8706 19.3563C12.4625 19.3931 13.0244 19.3669 13.4906 19.2744C16.4394 18.6856 18.4 16.4669 18.4 12.8069C18.4 12.5081 17.7675 11.4688 16.5625 11.4688V11.4688ZM13.5 13.225C13.5109 12.6225 13.6993 12.0367 14.0416 11.5408C14.3839 11.0449 14.8649 10.661 15.4243 10.4371C15.9838 10.2133 16.5968 10.1594 17.1867 10.2824C17.7766 10.4053 18.3171 10.6995 18.7406 11.1281C19.185 11.125 19.5631 11.2375 20.4087 10.725C20.1994 11.75 20.0962 12.195 19.65 12.8069C19.65 17.5831 16.7144 19.9056 13.7356 20.5C11.6931 20.9075 8.72312 20.2381 7.87187 19.3494C8.30562 19.3156 10.0681 19.1263 11.0869 18.3806C10.225 17.8125 6.79437 15.7938 9.04875 10.3663C10.1069 11.6019 11.18 12.4431 12.2675 12.8894C12.9912 13.1863 13.1687 13.18 13.5006 13.2256L13.5 13.225Z" fill="#0B3142"/>
</svg>
